<svg version="1.0" xmlns="http://www.w3.org/2000/svg"
 width="256" height="256" viewBox="0 0 256 256"
 preserveAspectRatio="xMidYMid meet">

<g transform="translate(0.000000,256) scale(0.100000,-0.100000)"
fill="#000000" stroke="none">
<path d="M1275 2464 c-16 -2 -112 -8 -212 -13 -197 -10 -233 -19 -335 -89 -24
-16 -97 -57 -163 -92 -153 -81 -279 -161 -332 -213 -63 -61 -56 -85 24 -85 17
-1 41 -6 52 -12 24 -13 28 -40 6 -40 -9 0 -21 -12 -27 -26 -10 -21 -9 -35 5
-75 17 -47 17 -50 -3 -88 -26 -51 -26 -50 11 -90 21 -24 29 -40 25 -55 -3 -12
-6 -29 -6 -38 0 -16 -11 -18 -86 -18 -83 0 -85 -1 -79 -21 6 -17 -1 -29 -30
-56 -44 -40 -46 -76 -3 -81 20 -2 30 -12 42 -43 22 -55 20 -98 -9 -175 -14
-36 -25 -77 -25 -90 0 -16 -6 -24 -18 -24 -24 0 -42 -19 -35 -36 3 -8 15 -14
27 -14 12 0 27 -9 34 -20 7 -11 21 -20 32 -20 30 0 43 -36 36 -94 -14 -100
-14 -100 24 -119 23 -12 52 -17 83 -15 45 3 48 2 58 -29 7 -21 17 -33 29 -33
10 0 21 -7 24 -15 4 -12 14 -14 41 -9 49 9 79 -13 94 -69 14 -57 24 -267 12
-267 -5 0 -26 -21 -47 -46 l-38 -47 21 -17 c24 -19 170 -35 188 -20 5 4 181
10 390 13 391 5 522 16 643 54 60 18 138 82 173 141 12 20 46 62 74 92 119
125 269 308 291 356 46 99 57 238 25 310 -22 47 -73 91 -125 105 l-35 10 38
59 c47 72 58 118 37 159 -8 15 -22 31 -31 34 -19 8 -19 21 -1 40 8 7 17 46 21
89 6 63 4 82 -12 119 -36 82 -114 128 -193 117 -35 -5 -38 2 -10 27 59 54 88
160 69 260 -29 156 -130 249 -316 291 -65 15 -387 27 -458 18z m472 -71 c196
-55 288 -187 253 -361 -11 -53 -19 -64 -106 -152 l-94 -95 0 36 c0 54 -37 163
-66 198 -69 82 -206 109 -444 86 -85 -8 -252 -19 -370 -25 -118 -6 -301 -20
-407 -31 -252 -27 -255 -26 -173 33 37 26 142 88 235 139 94 50 181 99 195
109 79 55 106 62 310 76 279 18 574 12 667 -13z m-232 -333 c39 -5 83 -14 99
-19 26 -10 26 -12 12 -33 -39 -56 -3 -214 63 -277 l35 -34 -29 -23 c-61 -49
-216 -90 -428 -113 -99 -11 -538 -26 -767 -26 l-125 0 0 35 0 35 170 6 c161 6
396 18 745 39 160 9 257 30 267 56 11 29 -12 37 -64 21 -71 -22 -96 -25 -264
-32 -85 -3 -226 -11 -314 -17 -314 -21 -548 -25 -572 -10 l-22 14 19 37 19 38
258 6 c245 6 546 25 733 47 47 5 106 10 132 10 25 0 53 3 62 6 16 6 22 39 9
47 -5 3 -47 1 -95 -4 -313 -32 -599 -51 -832 -56 -254 -6 -270 -5 -283 12 -19
28 -16 50 10 62 83 38 232 44 697 29 192 -6 276 -5 306 3 44 12 62 35 43 57
-9 11 -15 11 -34 -2 -29 -19 -265 -20 -548 -3 -148 9 -211 9 -295 -1 -145 -17
-147 -17 -147 0 0 18 119 34 375 49 321 20 614 41 685 49 6 1 42 -3 80 -8z
m206 -122 c14 -32 24 -80 27 -121 4 -68 4 -69 -17 -58 -30 16 -62 85 -68 147
-10 98 21 115 58 32z m366 -140 c43 -26 63 -71 63 -142 0 -49 -5 -62 -50 -129
-27 -41 -91 -119 -142 -172 l-93 -98 -7 58 c-9 73 -34 115 -79 137 -33 17 -64
17 -450 8 -228 -6 -531 -17 -674 -25 -143 -8 -311 -15 -373 -15 l-114 0 28 33
29 32 145 -3 c248 -5 908 25 1045 47 213 36 266 61 385 182 60 61 95 89 111
90 13 0 33 4 44 9 37 16 96 11 132 -12z m65 -339 c46 -25 -16 -137 -133 -240
-40 -35 -106 -96 -146 -135 l-74 -71 -33 33 c-19 19 -30 37 -25 40 5 3 21 11
35 19 28 14 317 314 335 346 11 22 14 23 41 8z m-410 -44 c3 -3 -4 -25 -16
-48 -16 -33 -21 -59 -20 -122 1 -44 3 -89 5 -99 3 -15 -4 -23 -26 -30 -16 -6
-39 -19 -50 -29 -32 -29 -63 -31 -205 -14 -74 10 -199 17 -277 17 -196 0 -724
-19 -862 -30 -63 -5 -116 -8 -117 -7 -1 1 11 40 28 87 29 84 33 138 13 206 -6
20 -3 21 202 28 114 3 285 11 378 17 94 6 319 14 500 18 182 4 355 8 386 9 31
1 58 0 61 -3z m63 -113 c0 -63 -31 -144 -46 -120 -25 39 8 215 35 188 6 -6 11
-37 11 -68z m-600 -273 c-60 -4 -173 -15 -250 -25 -157 -19 -644 -24 -705 -7
-30 8 -15 11 95 18 210 13 514 22 750 22 192 0 206 -1 110 -8z m475 -48 c0
-33 3 -66 6 -74 3 -8 -2 -18 -13 -22 -10 -4 -115 -11 -233 -16 -135 -5 -280
-17 -390 -33 -281 -40 -756 -74 -790 -56 -16 9 -17 14 -8 41 6 17 8 53 5 80
l-6 50 37 -8 c66 -14 527 -6 667 12 72 9 202 20 290 26 88 5 178 14 200 19 22
5 67 10 100 10 33 1 74 7 90 15 45 20 45 20 45 -44z m70 4 c0 -8 -4 -17 -10
-20 -6 -4 -10 5 -10 20 0 15 4 24 10 20 6 -3 10 -12 10 -20z m33 -261 c3 -4 0
-19 -8 -35 -30 -58 -10 -215 34 -270 18 -23 18 -24 -1 -61 -26 -50 -74 -74
-185 -93 -167 -28 -296 -35 -629 -35 -319 0 -334 1 -344 19 -5 11 -10 22 -10
25 0 3 87 6 193 6 105 0 264 7 352 16 88 8 230 19 316 23 162 7 209 20 209 57
0 21 -27 29 -46 13 -10 -8 -67 -15 -162 -20 -81 -4 -221 -15 -312 -23 -93 -9
-248 -15 -355 -15 -213 2 -224 -1 180 45 121 14 267 31 325 39 58 8 137 15
176 15 81 0 130 14 144 40 14 26 -13 48 -36 29 -10 -8 -61 -16 -137 -20 -67
-4 -185 -17 -262 -28 -163 -24 -508 -61 -566 -61 -36 0 -39 2 -39 28 l0 28
238 12 c130 7 296 21 367 31 72 10 171 22 220 26 50 3 102 11 118 17 26 10 36
31 19 42 -9 5 -303 -26 -417 -44 -145 -23 -545 -38 -545 -21 0 5 -2 16 -5 24
-5 11 24 15 172 20 219 8 526 32 653 52 52 8 119 17 148 19 55 3 79 16 68 35
-9 14 -97 14 -167 1 -89 -17 -490 -50 -694 -56 l-190 -6 -17 31 -17 31 124 0
c68 0 231 9 362 19 131 11 299 23 375 26 75 4 160 10 190 15 68 10 153 12 161
4z m103 -90 c16 -39 18 -131 4 -168 -25 -66 -71 0 -78 111 -6 90 -1 102 33 95
19 -3 31 -15 41 -38z m-1282 -399 c4 -11 -2 -15 -21 -15 -21 0 -24 2 -13 15 7
8 16 15 20 15 4 0 10 -7 14 -15z"/>
</g>
</svg>
