<svg version="1.0" xmlns="http://www.w3.org/2000/svg"
     width="512" height="512" viewBox="0 0 512 512"
     preserveAspectRatio="xMidYMid meet">

    <g transform="translate(0.000000,512.000000) scale(0.100000,-0.100000)"
       fill="#000000" stroke="none">
        <path d="M491 5104 c-77 -21 -143 -59 -201 -118 -59 -59 -78 -89 -111 -171
l-24 -60 -3 -1910 c-2 -1278 1 -1936 8 -1990 25 -197 168 -354 358 -394 31 -6
156 -11 297 -11 l245 0 0 -150 0 -150 450 0 450 0 0 150 0 150 300 0 300 0 0
-225 0 -225 1055 0 1055 0 0 525 0 525 145 0 c110 0 145 3 144 13 0 6 -100
210 -222 452 l-222 440 -372 3 -373 2 0 1580 0 1580 -1612 -1 c-1377 0 -1621
-2 -1667 -15z m269 -2014 l0 -1730 -27 -1 c-125 -3 -207 -9 -237 -18 l-36 -9
0 1692 0 1693 23 33 c37 54 78 70 184 70 l93 0 0 -1730z m2710 300 l0 -1430
-373 0 -372 0 -150 -300 -150 -300 -682 0 -683 0 0 1730 0 1730 1205 0 1205 0
0 -1430z m-100 -1735 c0 -3 -33 -70 -72 -150 l-73 -145 -232 0 -233 0 75 150
75 150 230 0 c127 0 230 -2 230 -5z m1028 -140 c39 -80 72 -147 72 -150 0 -3
-103 -5 -230 -5 l-230 0 -70 140 c-38 77 -70 144 -70 150 0 6 81 10 228 10
l227 0 73 -145z m-670 -260 l102 -205 270 0 270 0 0 -375 0 -375 -752 2 -753
3 -3 373 -2 372 275 0 275 0 102 205 c57 113 105 205 108 205 3 0 51 -92 108
-205z m-2668 -355 l0 -150 -237 0 c-213 0 -242 2 -280 20 -56 25 -83 70 -83
137 0 45 5 58 32 89 18 20 41 40 52 44 12 5 132 9 269 9 l247 1 0 -150z m600
-150 l0 -300 -150 0 -150 0 0 300 0 300 150 0 150 0 0 -300z m900 150 l0 -150
-300 0 -300 0 0 150 0 150 300 0 300 0 0 -150z"/>
        <path d="M1360 4065 l0 -455 903 2 902 3 0 450 0 450 -902 3 -903 2 0 -455z
m1500 5 l0 -150 -600 0 -600 0 0 150 0 150 600 0 600 0 0 -150z"/>
        <path d="M1360 3160 l0 -150 903 2 902 3 3 148 3 147 -906 0 -905 0 0 -150z"/>
    </g>
</svg>
