<svg version="1.0" xmlns="http://www.w3.org/2000/svg"
 width="512" height="512" viewBox="0 0 512 512"
 preserveAspectRatio="xMidYMid meet">

<g transform="translate(0.000000,512) scale(0.100000,-0.100000)"
fill="#000000" stroke="none">
<path d="M2095 4840 c-408 -86 -695 -367 -850 -835 -64 -190 -97 -418 -115
-790 -13 -263 -13 -1103 0 -1724 11 -538 16 -575 92 -723 35 -69 42 -93 43
-143 2 -104 49 -166 178 -231 315 -161 998 -191 1567 -68 473 102 778 241 849
387 25 52 26 88 5 151 l-16 47 36 68 c48 91 66 174 66 302 0 151 -25 281 -125
649 -78 286 -112 522 -125 875 -27 698 -90 1067 -234 1371 -166 349 -498 604
-874 669 -123 22 -382 19 -497 -5z m186 -901 c121 -79 248 -233 359 -439 151
-278 238 -374 376 -416 l45 -13 62 62 c47 48 73 66 109 76 93 26 184 -16 229
-105 20 -42 24 -63 24 -149 -1 -125 -24 -191 -96 -269 -83 -91 -173 -109 -260
-52 -40 27 -73 33 -84 16 -3 -5 -15 -44 -25 -87 -26 -99 -61 -171 -118 -241
l-45 -55 7 -96 c15 -207 56 -392 113 -504 38 -75 95 -130 176 -170 124 -60
123 -57 26 -110 -169 -91 -363 -154 -559 -182 -138 -19 -179 -19 -202 2 -18
16 -21 16 -53 -1 -57 -31 -205 -8 -337 52 l-63 29 200 99 c194 96 201 100 223
144 30 60 29 172 -2 295 -13 50 -23 90 -22 91 0 0 47 15 103 32 79 25 103 37
108 53 5 14 1 27 -9 37 -14 14 -22 14 -58 4 -241 -69 -336 -83 -476 -71 -164
14 -349 119 -480 274 -108 126 -131 241 -139 701 l-5 301 128 90 c71 49 172
119 224 155 200 138 319 262 398 415 20 40 42 73 48 73 6 0 40 -19 75 -41z
m1115 -2581 c83 -53 253 -234 307 -325 53 -91 97 -200 97 -241 0 -94 -164
-202 -453 -297 -554 -181 -1226 -221 -1685 -100 -155 41 -312 131 -312 178 0
12 13 8 57 -19 83 -50 159 -76 239 -81 58 -5 77 -2 111 15 76 39 113 107 100
186 -3 18 -44 119 -91 224 -47 104 -86 194 -86 198 1 11 28 32 134 101 l79 52
28 -20 c74 -52 234 -109 309 -109 20 0 39 -2 42 -5 3 -3 -23 -62 -58 -131 -35
-70 -64 -135 -64 -145 0 -11 11 -24 25 -31 33 -15 43 -5 80 86 29 71 118 216
133 216 10 0 86 -128 141 -238 23 -46 48 -85 56 -89 20 -7 45 15 45 39 0 27
-55 150 -100 225 -21 34 -35 64 -32 67 3 3 24 6 47 6 72 0 261 39 383 79 128
42 254 98 347 154 33 20 63 36 66 37 3 0 28 -14 55 -32z"/>
<path d="M2220 3497 c-29 -15 -40 -64 -16 -73 8 -3 39 -1 68 5 60 13 169 3
281 -26 61 -15 69 -16 83 -1 28 28 9 56 -49 73 -128 37 -316 48 -367 22z"/>
<path d="M1495 3271 c-50 -22 -69 -44 -60 -70 9 -29 32 -33 75 -11 22 11 51
20 65 20 l25 0 -20 -20 c-16 -16 -20 -33 -20 -93 0 -87 14 -107 76 -107 67 0
79 16 80 107 1 43 5 86 9 95 13 31 0 53 -45 76 -55 27 -129 29 -185 3z"/>
<path d="M2335 3267 c-71 -40 -55 -108 19 -78 17 7 40 15 51 18 16 5 18 3 8
-8 -8 -8 -13 -42 -13 -90 0 -95 10 -109 80 -109 61 0 70 13 70 107 0 58 3 70
21 81 32 20 20 52 -30 79 -60 32 -150 32 -206 0z"/>
<path d="M3240 3019 c-50 -20 -100 -84 -100 -128 0 -11 10 -26 22 -32 19 -10
25 -8 44 17 48 62 64 74 92 74 40 0 65 21 60 51 -3 21 -9 24 -48 26 -25 1 -56
-2 -70 -8z"/>
<path d="M1877 2804 c-13 -13 -7 -64 9 -89 9 -14 34 -30 55 -36 32 -10 42 -9
64 5 14 9 25 25 25 36 0 22 -32 43 -53 34 -10 -3 -20 4 -29 23 -13 27 -55 43
-71 27z"/>
<path d="M2139 2554 c-39 -47 -139 -59 -190 -23 -37 26 -73 22 -77 -9 -10 -67
119 -112 231 -81 20 5 56 27 78 49 35 33 39 41 29 59 -13 25 -52 28 -71 5z"/>
</g>
</svg>
