<svg version="1.0" xmlns="http://www.w3.org/2000/svg"
 width="512" height="512" viewBox="0 0 512 512"
 preserveAspectRatio="xMidYMid meet">

<g transform="translate(0.000000,512.000000) scale(0.100000,-0.100000)"
fill="#000000" stroke="none">
<path d="M2295 5110 c-638 -37 -956 -180 -1165 -524 -200 -329 -247 -827 -115
-1230 l26 -78 -27 -35 c-54 -71 -68 -127 -68 -258 0 -106 3 -128 27 -188 64
-163 166 -263 315 -307 26 -8 42 -19 42 -29 0 -30 88 -276 126 -355 87 -178
307 -351 583 -458 l44 -18 -6 -92 c-7 -123 -10 -128 -61 -128 -22 0 -55 -8
-73 -18 -38 -20 -237 -165 -274 -200 -24 -21 -41 -25 -145 -33 -362 -29 -565
-99 -709 -244 -38 -39 -85 -96 -103 -127 -86 -145 -134 -388 -98 -489 35 -100
109 -148 271 -178 414 -75 813 -107 1480 -118 695 -10 1352 28 1813 108 156
27 179 33 234 68 118 75 138 231 58 468 -37 112 -82 184 -165 268 -75 76 -175
135 -295 175 -82 27 -261 57 -412 69 -109 8 -119 11 -155 40 -86 70 -257 193
-280 202 -13 5 -42 9 -63 9 -47 0 -49 5 -57 127 l-6 93 44 18 c274 106 497
281 583 456 37 77 126 327 126 357 0 10 16 21 43 29 148 44 250 144 314 307
24 60 27 82 27 188 0 132 -14 187 -68 258 l-27 35 29 84 c85 240 111 523 71
752 -39 224 -209 469 -398 576 -104 59 -99 51 -63 101 36 49 42 95 14 129 -47
58 -430 85 -774 54 l-66 -6 5 41 c7 49 -8 84 -44 100 -27 12 -346 13 -558 1z
m-200 -881 c22 -6 76 -35 120 -64 198 -132 425 -213 652 -232 69 -6 83 -10
139 -50 85 -59 156 -89 304 -128 212 -56 295 -98 388 -199 l52 -58 0 -132 c0
-352 -123 -956 -244 -1193 -79 -157 -295 -304 -583 -397 -234 -75 -414 -84
-623 -31 -337 87 -596 248 -688 430 -70 139 -143 403 -192 690 -42 252 -52
370 -48 580 l3 190 37 83 c53 121 94 185 172 269 101 108 216 185 351 234 58
21 104 23 160 8z m-873 -1211 c10 -74 26 -179 37 -234 10 -54 17 -101 15 -103
-7 -7 -63 46 -92 89 -49 71 -65 125 -66 220 0 62 4 94 17 117 17 33 45 55 62
49 5 -1 17 -63 27 -138z m2729 132 c36 -20 53 -70 53 -155 1 -93 -19 -160 -67
-228 -31 -44 -84 -93 -91 -86 -2 2 4 47 15 99 10 52 25 154 34 225 22 171 19
164 56 145z m-1571 -1596 c135 -23 356 -13 471 22 13 4 17 -9 22 -78 3 -46 15
-111 25 -146 l20 -63 -76 -67 c-89 -78 -155 -127 -230 -171 l-53 -31 -47 27
c-65 38 -187 130 -254 192 -53 48 -56 54 -47 79 18 47 39 162 39 213 0 43 2
50 18 45 9 -3 60 -13 112 -22z"/>
<path d="M1855 3629 c-70 -14 -222 -90 -272 -137 -33 -31 -43 -47 -43 -72 0
-38 47 -90 82 -90 13 0 53 20 88 45 96 68 158 88 265 89 75 1 103 -4 168 -28
68 -25 81 -27 108 -16 36 15 49 37 49 83 0 46 -31 72 -121 104 -84 29 -237 39
-324 22z"/>
<path d="M3005 3625 c-122 -26 -185 -68 -185 -122 0 -46 13 -68 49 -83 27 -11
40 -9 108 16 65 24 93 29 168 28 108 -1 176 -24 264 -90 69 -52 109 -57 146
-19 18 17 25 35 25 61 0 30 -7 43 -42 75 -59 54 -184 117 -266 134 -82 18
-187 18 -267 0z"/>
<path d="M1855 3216 c-101 -46 -152 -138 -141 -253 8 -83 8 -88 0 -140 -5 -36
-2 -45 20 -67 l25 -26 201 0 202 0 30 30 c26 26 29 36 23 63 -3 18 -6 44 -6
60 1 15 2 60 3 100 3 63 -1 78 -26 125 -67 120 -207 166 -331 108z m170 -178
c32 -38 29 -81 -11 -115 -78 -70 -184 48 -109 122 36 37 86 34 120 -7z"/>
<path d="M3041 3214 c-103 -52 -157 -167 -132 -285 8 -41 9 -65 1 -78 -17 -33
-11 -61 19 -92 l29 -29 202 0 201 0 25 26 c22 22 25 31 20 67 -8 52 -8 57 0
140 5 52 2 78 -11 113 -54 142 -218 205 -354 138z m174 -169 c75 -74 -31 -192
-109 -122 -40 34 -43 77 -11 115 34 41 84 44 120 7z"/>
<path d="M2415 2705 c-17 -16 -25 -35 -25 -57 1 -69 38 -88 170 -88 101 0 133
8 157 39 22 28 15 76 -13 105 -26 25 -30 26 -146 26 -113 0 -120 -1 -143 -25z"/>
<path d="M2265 2378 c-42 -24 -46 -39 -42 -148 4 -124 25 -178 97 -250 73 -74
127 -95 240 -95 78 0 103 4 141 23 70 34 122 84 159 154 31 57 35 73 38 161 5
108 -4 137 -45 156 -34 15 -561 15 -588 -1z"/>
</g>
</svg>
