<svg version="1.0" xmlns="http://www.w3.org/2000/svg"
 width="256" height="256" viewBox="0 0 256 256"
 preserveAspectRatio="xMidYMid meet">

<g transform="translate(0.000000,256) scale(0.100000,-0.100000)"
fill="#000000" stroke="none">
<path d="M1163 2499 c-36 -11 -83 -61 -83 -90 0 -23 -14 -23 -95 -4 -77 19
-168 19 -204 0 -16 -8 -41 -29 -56 -47 -25 -29 -27 -38 -22 -89 l5 -56 -50 -6
c-58 -7 -102 -31 -132 -70 -25 -33 -27 -108 -7 -225 7 -40 20 -177 30 -305
l18 -232 -28 -32 c-107 -123 -2 -343 165 -343 32 0 37 -4 66 -58 56 -106 159
-193 286 -245 35 -14 60 -30 62 -40 6 -28 -37 -87 -62 -87 -13 0 -38 -11 -57
-25 -19 -13 -45 -30 -59 -36 -156 -71 -177 -85 -250 -158 -55 -55 -86 -97
-113 -152 -42 -85 -47 -129 -17 -159 20 -20 33 -20 720 -20 687 0 700 0 720
20 29 29 25 71 -17 158 -28 57 -57 97 -113 153 -73 73 -94 87 -250 158 -14 6
-40 23 -59 36 -19 14 -44 25 -57 25 -25 0 -68 59 -62 87 2 10 27 26 62 40 129
52 221 131 282 240 30 53 40 63 62 63 91 0 179 68 206 160 22 75 10 135 -36
187 -19 21 -19 28 -9 185 7 90 18 236 26 326 20 223 20 277 -5 317 -28 46 -86
69 -152 62 l-53 -7 -24 50 c-52 109 -133 170 -228 170 -41 0 -58 -5 -82 -26
l-31 -26 -35 27 c-81 61 -196 94 -262 74z m113 -64 c27 -8 78 -35 114 -60 76
-54 103 -57 125 -15 13 26 21 30 56 30 80 0 128 -39 183 -147 33 -66 51 -76
124 -67 52 5 61 4 86 -17 35 -31 35 -35 7 -384 -33 -421 -28 -385 -60 -385
-28 0 -29 2 -50 103 -12 56 -28 154 -36 217 -20 157 -42 183 -193 233 -227 75
-477 75 -704 0 -152 -50 -174 -77 -193 -234 -8 -63 -24 -160 -36 -216 -21
-100 -22 -103 -49 -103 l-27 0 -12 183 c-7 100 -19 234 -27 297 -26 196 -27
206 -14 229 14 28 67 51 115 51 25 0 44 8 61 25 23 23 24 30 18 83 -6 56 -5
60 21 80 34 27 121 30 205 7 98 -26 126 -17 147 50 9 30 43 55 74 55 8 0 38
-7 65 -15z m176 -510 c90 -16 229 -59 265 -83 27 -17 39 -56 53 -177 6 -49 22
-141 36 -204 28 -126 27 -171 -7 -320 -51 -220 -165 -341 -393 -415 -99 -33
-151 -33 -251 0 -229 74 -343 194 -394 415 -34 149 -35 194 -7 320 14 63 30
159 37 214 18 161 21 165 156 210 165 54 343 69 505 40z m-782 -623 c0 -23 -6
-30 -32 -37 -26 -8 -33 -15 -33 -35 0 -22 5 -26 39 -30 40 -5 40 -5 54 -68 7
-35 11 -66 9 -69 -11 -10 -74 18 -99 45 -38 40 -48 66 -48 119 1 64 33 102 88
103 18 0 22 -6 22 -28z m1283 16 c35 -18 46 -40 47 -91 0 -53 -10 -79 -48
-119 -25 -27 -88 -55 -99 -45 -2 3 2 34 9 69 14 63 14 63 54 68 34 4 39 8 39
30 0 20 -7 27 -32 35 -27 7 -33 14 -33 37 0 31 24 37 63 16z m-673 -728 c25 0
60 4 78 9 18 6 32 6 32 1 0 -5 14 -25 32 -45 l31 -36 -42 -83 c-40 -80 -42
-86 -31 -126 6 -23 9 -45 5 -48 -7 -8 -203 -8 -210 0 -4 3 -1 25 5 48 11 40 9
46 -30 125 l-42 82 33 45 c31 41 36 44 64 36 16 -4 50 -8 75 -8z m-325 -207
c15 -117 47 -155 111 -128 l36 15 -6 -28 c-3 -15 -11 -57 -17 -94 l-11 -68
-234 0 c-191 0 -234 3 -234 14 0 35 75 160 130 214 52 52 176 131 207 132 7 0
14 -24 18 -57z m747 20 c92 -48 177 -134 222 -225 20 -39 36 -77 36 -84 0 -11
-43 -14 -234 -14 l-234 0 -11 68 c-6 37 -14 79 -17 94 l-6 28 36 -15 c64 -27
96 11 111 128 3 31 11 57 17 57 5 0 42 -17 80 -37z"/>
<path d="M917 1550 c-59 -10 -97 -34 -97 -60 0 -28 16 -33 49 -15 22 11 61 15
144 15 93 0 116 3 121 15 14 36 -114 63 -217 45z"/>
<path d="M1499 1551 c-53 -8 -80 -26 -72 -47 4 -11 30 -14 120 -14 84 0 122
-4 145 -16 34 -17 52 -8 46 22 -7 41 -135 71 -239 55z"/>
<path d="M951 1447 c-46 -16 -62 -43 -38 -62 11 -7 25 -11 33 -8 10 4 12 0 8
-10 -6 -16 36 -67 54 -67 16 0 62 41 62 55 0 7 7 18 15 25 23 19 18 38 -12 54
-44 22 -85 26 -122 13z"/>
<path d="M1516 1445 c-52 -18 -64 -31 -48 -53 7 -9 16 -27 22 -39 15 -35 55
-57 79 -43 24 13 44 46 36 60 -3 6 5 10 18 10 28 0 43 26 26 46 -9 11 -72 35
-89 34 -3 -1 -22 -7 -44 -15z"/>
<path d="M1244 1310 c-29 -12 -38 -40 -19 -59 13 -13 19 -13 35 -3 16 10 24
10 40 0 16 -10 22 -10 35 3 20 20 10 48 -22 60 -29 11 -41 11 -69 -1z"/>
<path d="M1320 1125 c-10 -12 -28 -16 -69 -14 -42 2 -57 -1 -65 -14 -29 -46
88 -70 155 -31 24 14 34 27 34 45 0 29 -35 38 -55 14z"/>
</g>
</svg>
